<?xml version="1.0" encoding="UTF-8" standalone="no"?> <svg width="64" height="64" viewBox="0 0 64 64" fill="none" xmlns="http://www.w3.org/2000/svg">
<path d="M22 22C21.4696 22 20.9609 21.7893 20.5858 21.4142C20.2107 21.0391 20 20.5304 20 20H18C18 21.0609 18.4214 22.0783 19.1716 22.8284C19.9217 23.5786 20.9391 24 22 24C23.0609 24 24.0783 23.5786 24.8284 22.8284C25.5786 22.0783 26 21.0609 26 20H24C24 20.5304 23.7893 21.0391 23.4142 21.4142C23.0391 21.7893 22.5304 22 22 22Z" fill="black"/>
<path d="M61.2 44.02L58.463 43.472C58.2414 42.7534 57.9532 42.057 57.602 41.392L59.15 39.069C59.278 38.8767 59.3355 38.646 59.3127 38.4162C59.2899 38.1863 59.1883 37.9714 59.025 37.808L56.196 34.979C56.0326 34.8157 55.8177 34.7141 55.5878 34.6913C55.358 34.6685 55.1273 34.726 54.935 34.854L52.607 36.4C51.9428 36.0475 51.2467 35.7589 50.528 35.538L49.98 32.8C49.9339 32.5741 49.8112 32.3711 49.6326 32.2253C49.454 32.0796 49.2305 32 49 32H45C44.7695 32 44.546 32.0796 44.3674 32.2253C44.1888 32.3711 44.0661 32.5741 44.02 32.8L43.472 35.537C42.7533 35.7579 42.0572 36.0465 41.393 36.399L39.556 35.175C38.9575 33.5449 37.7756 32.1949 36.239 31.386C37.0916 29.5744 37.2318 27.5085 36.6318 25.5984C36.0318 23.6882 34.7354 22.0736 33 21.075V13C33 10.0826 31.8411 7.28473 29.7782 5.22183C27.7153 3.15893 24.9174 2 22 2C19.0826 2 16.2847 3.15893 14.2218 5.22183C12.1589 7.28473 11 10.0826 11 13V21.075C9.26475 22.0727 7.96812 23.6864 7.36754 25.5958C6.76695 27.5052 6.90633 29.5706 7.758 31.382C6.62452 31.9724 5.67476 32.8626 5.01214 33.9554C4.34952 35.0483 3.99943 36.302 4 37.58V55C4 55.2652 4.10536 55.5196 4.29289 55.7071C4.48043 55.8946 4.73478 56 5 56H34.845C34.8814 56.0694 34.9264 56.1339 34.979 56.192L37.808 59.021C37.9714 59.1843 38.1863 59.2859 38.4162 59.3087C38.646 59.3315 38.8767 59.274 39.069 59.146L41.393 57.6C42.0572 57.9525 42.7533 58.2411 43.472 58.462L44.02 61.2C44.0661 61.4259 44.1888 61.6289 44.3674 61.7747C44.546 61.9204 44.7695 62 45 62H49C49.2305 62 49.454 61.9204 49.6326 61.7747C49.8112 61.6289 49.9339 61.4259 49.98 61.2L50.528 58.463C51.2467 58.2421 51.9428 57.9535 52.607 57.601L54.931 59.15C55.1233 59.278 55.354 59.3355 55.5838 59.3127C55.8137 59.2899 56.0286 59.1883 56.192 59.025L59.021 56.196C59.1843 56.0326 59.2859 55.8177 59.3087 55.5878C59.3315 55.358 59.274 55.1273 59.146 54.935L57.6 52.608C57.9512 51.943 58.2394 51.2466 58.461 50.528L61.2 49.98C61.4259 49.9339 61.6289 49.8112 61.7747 49.6326C61.9204 49.454 62 49.2305 62 49V45C62 44.7695 61.9204 44.546 61.7747 44.3674C61.6289 44.1888 61.4259 44.0661 61.2 44.02ZM31.573 22.584C32.6025 23.0643 33.4727 23.8298 34.0801 24.7898C34.6876 25.7498 35.0068 26.864 35 28C35 28.9328 34.7768 29.8521 34.349 30.681L26 28.25V27.05C27.4996 26.306 28.762 25.1584 29.6453 23.7364C30.5286 22.3143 30.9977 20.6741 31 19V21.68C31 21.8695 31.0539 22.0551 31.1554 22.2151C31.2568 22.3752 31.4017 22.5031 31.573 22.584V22.584ZM22 26C20.1441 25.9979 18.3649 25.2597 17.0526 23.9474C15.7403 22.6351 15.0021 20.8559 15 19V16H16.857C18.3023 16.0041 19.734 15.7215 21.0693 15.1684C22.4046 14.6154 23.6169 13.8029 24.636 12.778L24.726 12.688L25 13.236C25.377 13.9966 25.9426 14.648 26.6429 15.128C27.3431 15.608 28.1546 15.9006 29 15.978V19C28.9979 20.8559 28.2597 22.6351 26.9474 23.9474C25.6351 25.2597 23.8559 25.9979 22 26ZM20 29V27.768C21.3154 28.0773 22.6846 28.0773 24 27.768V29C24.0001 29.2165 24.0704 29.4271 24.2004 29.6002C24.3304 29.7734 24.5131 29.8996 24.721 29.96L26.907 30.597L22 39.015L17.093 30.6L19.279 29.963C19.4874 29.9025 19.6704 29.7758 19.8005 29.602C19.9306 29.4283 20.0006 29.217 20 29V29ZM13 13C13 10.6131 13.9482 8.32387 15.636 6.63604C17.3239 4.94821 19.6131 4 22 4C24.3869 4 26.6761 4.94821 28.364 6.63604C30.0518 8.32387 31 10.6131 31 13V15C31 14.7348 30.8946 14.4804 30.7071 14.2929C30.5196 14.1054 30.2652 14 30 14H29.472C28.9145 14.0019 28.3677 13.8476 27.8935 13.5546C27.4192 13.2615 27.0366 12.8415 26.789 12.342L25.9 10.553C25.8291 10.4115 25.7256 10.2889 25.5981 10.1953C25.4706 10.1016 25.3226 10.0395 25.1664 10.0141C25.0103 9.98873 24.8503 10.0008 24.6997 10.0493C24.549 10.0977 24.4121 10.1813 24.3 10.293L23.229 11.364C22.3942 12.2032 21.4011 12.8684 20.3073 13.3209C19.2135 13.7733 18.0407 14.0042 16.857 14H14C13.7348 14 13.4804 14.1054 13.2929 14.2929C13.1054 14.4804 13 14.7348 13 15V13ZM12.427 22.584C12.5977 22.5034 12.7422 22.3761 12.8436 22.2168C12.945 22.0575 12.9992 21.8728 13 21.684V19C13.0023 20.6741 13.4714 22.3143 14.3547 23.7364C15.238 25.1584 16.5004 26.306 18 27.05V28.25L9.652 30.682C9.22349 29.8529 8.99991 28.9333 9 28C8.99318 26.864 9.31244 25.7498 9.91989 24.7898C10.5273 23.8298 11.3975 23.0643 12.427 22.584V22.584ZM6 37.58C5.99716 36.5287 6.32651 35.5033 6.94105 34.6503C7.55558 33.7973 8.42388 33.1602 9.422 32.83C9.48 32.815 9.699 32.75 9.699 32.75L15.113 31.173L21.136 41.5C21.224 41.6511 21.3501 41.7764 21.5017 41.8635C21.6534 41.9507 21.8251 41.9965 22 41.9965C22.1749 41.9965 22.3466 41.9507 22.4983 41.8635C22.6499 41.7764 22.776 41.6511 22.864 41.5L28.887 31.17L34.3 32.75L34.4 32.78C34.463 32.799 34.515 32.813 34.509 32.811C35.1413 33.017 35.7266 33.3461 36.2312 33.7792C36.7358 34.2124 37.1497 34.7412 37.449 35.335L34.976 37.808C34.8127 37.9714 34.7111 38.1863 34.6883 38.4162C34.6655 38.646 34.723 38.8767 34.851 39.069L36.4 41.392C36.0488 42.057 35.7606 42.7534 35.539 43.472L34.974 43.585C34.9429 42.4787 34.6587 41.3943 34.1432 40.4151C33.6276 39.4358 32.8944 38.5877 32 37.936V36H30V38.5C29.9999 38.6818 30.0495 38.8602 30.1432 39.0159C30.2369 39.1717 30.3713 39.2989 30.532 39.384C31.3149 39.8614 31.9563 40.539 32.3901 41.3468C32.824 42.1547 33.0345 43.0637 33 43.98L32.8 44.02C32.5741 44.0661 32.3711 44.1888 32.2253 44.3674C32.0796 44.546 32 44.7695 32 45V47.273C31.6249 47.8301 31.1227 48.29 30.535 48.615C30.3736 48.6998 30.2385 48.827 30.1442 48.983C30.0499 49.139 30.0001 49.3177 30 49.5V54H14V49.5C14 49.3182 13.9505 49.1398 13.8568 48.9841C13.7631 48.8283 13.6287 48.7011 13.468 48.616C12.7088 48.1089 12.0863 47.4223 11.6559 46.6171C11.2254 45.812 11.0002 44.913 11.0002 44C11.0002 43.087 11.2254 42.188 11.6559 41.3829C12.0863 40.5777 12.7088 39.8911 13.468 39.384C13.6287 39.2989 13.7631 39.1717 13.8568 39.0159C13.9505 38.8602 14 38.6818 14 38.5V36H12V37.936C11.0673 38.648 10.3114 39.5656 9.79116 40.6173C9.27087 41.669 9.00021 42.8266 9.00021 44C9.00021 45.1734 9.27087 46.331 9.79116 47.3827C10.3114 48.4344 11.0673 49.352 12 50.064V54H6V37.58ZM35.475 54H32V50.065C32.133 49.975 32.259 49.873 32.385 49.772C32.5058 49.8742 32.6496 49.9455 32.804 49.98L35.541 50.528C35.7626 51.2466 36.0508 51.943 36.402 52.608L35.475 54ZM60 48.18L57.464 48.688C57.2782 48.725 57.1067 48.814 56.9695 48.9446C56.8323 49.0753 56.735 49.2422 56.689 49.426C56.4516 50.38 56.0735 51.2934 55.567 52.136C55.4695 52.2985 55.4202 52.4853 55.4248 52.6748C55.4294 52.8642 55.4877 53.0484 55.593 53.206L57.026 55.358L55.357 57.027L53.206 55.592C53.0483 55.4869 52.8641 55.4287 52.6746 55.4243C52.4852 55.4199 52.2984 55.4694 52.136 55.567C51.2936 56.0742 50.3802 56.4527 49.426 56.69C49.2422 56.7358 49.0751 56.8328 48.9443 56.9698C48.8134 57.1069 48.7242 57.2782 48.687 57.464L48.181 60H45.819L45.312 57.464C45.2749 57.2784 45.1858 57.1071 45.0552 56.9701C44.9245 56.833 44.7577 56.7359 44.574 56.69C43.6198 56.4527 42.7064 56.0742 41.864 55.567C41.7016 55.4694 41.5148 55.4199 41.3254 55.4243C41.1359 55.4287 40.9517 55.4869 40.794 55.592L38.643 57.027L36.974 55.358L38.407 53.206C38.5123 53.0484 38.5706 52.8642 38.5752 52.6748C38.5798 52.4853 38.5305 52.2985 38.433 52.136C37.9265 51.2934 37.5484 50.38 37.311 49.426C37.265 49.2422 37.1677 49.0753 37.0305 48.9446C36.8933 48.814 36.7218 48.725 36.536 48.688L34 48.18V45.82L36.536 45.312C36.7218 45.275 36.8933 45.186 37.0305 45.0554C37.1677 44.9247 37.265 44.7578 37.311 44.574C37.5484 43.62 37.9265 42.7066 38.433 41.864C38.5305 41.7015 38.5798 41.5147 38.5752 41.3252C38.5706 41.1358 38.5123 40.9516 38.407 40.794L36.974 38.642L38.643 36.973L40.794 38.408C40.9517 38.5131 41.1359 38.5713 41.3254 38.5757C41.5148 38.5801 41.7016 38.5306 41.864 38.433C42.7064 37.9258 43.6198 37.5473 44.574 37.31C44.7577 37.2641 44.9245 37.167 45.0552 37.0299C45.1858 36.8929 45.2749 36.7216 45.312 36.536L45.819 34H48.181L48.687 36.536C48.7242 36.7218 48.8134 36.8931 48.9443 37.0302C49.0751 37.1672 49.2422 37.2642 49.426 37.31C50.3802 37.5473 51.2936 37.9258 52.136 38.433C52.2984 38.5306 52.4852 38.5801 52.6746 38.5757C52.8641 38.5713 53.0483 38.5131 53.206 38.408L55.357 36.973L57.026 38.642L55.593 40.794C55.4877 40.9516 55.4294 41.1358 55.4248 41.3252C55.4202 41.5147 55.4695 41.7015 55.567 41.864C56.0735 42.7066 56.4516 43.62 56.689 44.574C56.735 44.7578 56.8323 44.9247 56.9695 45.0554C57.1067 45.186 57.2782 45.275 57.464 45.312L60 45.82V48.18Z" fill="black"/>
<path d="M47 40C45.6155 40 44.2622 40.4105 43.111 41.1797C41.9599 41.9489 41.0627 43.0421 40.5328 44.3212C40.003 45.6003 39.8644 47.0078 40.1345 48.3656C40.4046 49.7235 41.0713 50.9708 42.0503 51.9497C43.0292 52.9287 44.2765 53.5954 45.6344 53.8655C46.9922 54.1356 48.3997 53.997 49.6788 53.4672C50.9579 52.9373 52.0511 52.0401 52.8203 50.889C53.5895 49.7378 54 48.3845 54 47C53.9979 45.1441 53.2597 43.3649 51.9474 42.0526C50.6351 40.7403 48.8559 40.0021 47 40V40ZM47 52C46.0111 52 45.0444 51.7068 44.2221 51.1573C43.3999 50.6079 42.759 49.827 42.3806 48.9134C42.0022 47.9998 41.9031 46.9945 42.0961 46.0245C42.289 45.0546 42.7652 44.1637 43.4645 43.4645C44.1637 42.7652 45.0546 42.289 46.0245 42.0961C46.9945 41.9031 47.9998 42.0022 48.9134 42.3806C49.827 42.759 50.6079 43.3999 51.1573 44.2221C51.7068 45.0444 52 46.0111 52 47C51.9984 48.3256 51.4711 49.5964 50.5338 50.5338C49.5964 51.4711 48.3256 51.9984 47 52V52Z" fill="black"/>
<path d="M39.6 29.494L40.379 31.335C43.7065 29.9332 47.3935 29.6259 50.9071 30.4575C54.4207 31.2891 57.5788 33.2164 59.925 35.961L61.444 34.661C58.8222 31.5935 55.2926 29.4395 51.3657 28.5106C47.4388 27.5817 43.3182 27.9261 39.6 29.494V29.494Z" fill="black"/>
<path d="M47 26C51.8741 26.0037 56.5955 27.7004 60.357 30.8L61.631 29.258C59.0393 27.1249 56.013 25.5836 52.7637 24.7418C49.5144 23.8999 46.1204 23.7778 42.819 24.384L43.181 26.351C44.4408 26.1193 45.719 26.0018 47 26V26Z" fill="black"/>
<path d="M41.272 26.791L40.728 24.866C40.028 25.066 39.32 25.301 38.636 25.566L39.364 27.43C39.988 27.188 40.63 26.972 41.272 26.791Z" fill="black"/>
</svg>
